<?xml version="1.0" encoding="iso-8859-1"?>
<!-- Generator: Adobe Illustrator 19.0.0, SVG Export Plug-In . SVG Version: 6.00 Build 0)  -->
<svg version="1.1" id="Layer_1" xmlns="http://www.w3.org/2000/svg" xmlns:xlink="http://www.w3.org/1999/xlink" x="0px" y="0px"
	 viewBox="0 0 512 512" style="enable-background:new 0 0 512 512;" xml:space="preserve">
<polyline style="fill:#FCD577;" points="216.381,211.565 216.381,512 264.371,512 264.371,211.565 264.371,46.224 264.371,0 
	216.381,0 216.381,46.224 "/>
<polyline style="fill:#EAC36E;" points="216.381,183.328 216.381,241.196 264.371,241.196 264.371,183.328 264.371,151.482 
	264.371,142.578 216.381,142.578 216.381,151.482 "/>
<polygon style="fill:#FF6F52;" points="398.222,211.561 49.779,211.561 49.779,46.228 398.222,46.228 462.221,128.894 "/>
<g>
	<path style="fill:#415E72;" d="M342.923,106.673c4.91,0,8.889-3.98,8.889-8.889s-3.979-8.889-8.889-8.889h-33.584
		c-4.91,0-8.889,3.98-8.889,8.889v62.222c0,4.909,3.979,8.889,8.889,8.889h33.584c4.91,0,8.889-3.98,8.889-8.889
		s-3.979-8.889-8.889-8.889h-24.694v-13.332h10.867c4.91,0,8.889-3.98,8.889-8.889c0-4.909-3.979-8.889-8.889-8.889h-10.867v-13.333
		H342.923z"/>
	<path style="fill:#415E72;" d="M400.538,151.115h-22.452V97.783c0-4.909-3.979-8.889-8.889-8.889s-8.889,3.98-8.889,8.889v62.222
		c0,4.909,3.979,8.889,8.889,8.889h31.341c4.91,0,8.889-3.98,8.889-8.889S405.448,151.115,400.538,151.115z"/>
	<path style="fill:#415E72;" d="M125.512,88.894c-4.91,0-8.889,3.98-8.889,8.889v22.222h-22.32V97.783
		c0-4.909-3.979-8.889-8.889-8.889s-8.889,3.98-8.889,8.889v62.222c0,4.909,3.979,8.889,8.889,8.889s8.889-3.98,8.889-8.889v-22.221
		h22.319v22.221c0,4.909,3.979,8.889,8.889,8.889c4.91,0,8.889-3.98,8.889-8.889V97.783
		C134.401,92.874,130.421,88.894,125.512,88.894z"/>
	<path style="fill:#415E72;" d="M184.261,88.894c-22.056,0-40.001,17.945-40.001,40.001s17.945,39.999,40.001,39.999
		c22.055,0,39.999-17.943,39.999-39.999S206.316,88.894,184.261,88.894z M184.261,151.115c-12.253,0-22.222-9.968-22.222-22.221
		s9.969-22.222,22.222-22.222c12.253,0,22.221,9.969,22.221,22.222C206.482,141.147,196.514,151.115,184.261,151.115z"/>
	<path style="fill:#415E72;" d="M283.698,88.894h-48.395c-4.91,0-8.889,3.98-8.889,8.889s3.979,8.889,8.889,8.889h15.309v53.332
		c0,4.909,3.979,8.889,8.889,8.889s8.889-3.98,8.889-8.889v-53.332h15.307c4.91,0,8.889-3.98,8.889-8.889
		S288.608,88.894,283.698,88.894z"/>
</g>
<g>
</g>
<g>
</g>
<g>
</g>
<g>
</g>
<g>
</g>
<g>
</g>
<g>
</g>
<g>
</g>
<g>
</g>
<g>
</g>
<g>
</g>
<g>
</g>
<g>
</g>
<g>
</g>
<g>
</g>
</svg>
